<svg xmlns="http://www.w3.org/2000/svg" xmlns:xlink="http://www.w3.org/1999/xlink" width="227" zoomAndPan="magnify" viewBox="0 0 170.25 84.749997" height="113" preserveAspectRatio="xMidYMid meet" version="1.0"><defs><g/><clipPath id="03c6482b93"><path d="M 0 0.0625 L 169.503906 0.0625 L 169.503906 84.441406 L 0 84.441406 Z M 0 0.0625 " clip-rule="nonzero"/></clipPath><clipPath id="c82f0f40c2"><path d="M 0.902344 0.832031 L 143.554688 0.832031 L 143.554688 52.921875 L 0.902344 52.921875 Z M 0.902344 0.832031 " clip-rule="nonzero"/></clipPath><clipPath id="5a4a705825"><path d="M 1 1 L 31 1 L 31 52.746094 L 1 52.746094 Z M 1 1 " clip-rule="nonzero"/></clipPath><clipPath id="24f4a50122"><path d="M 36 13 L 143.554688 13 L 143.554688 41 L 36 41 Z M 36 13 " clip-rule="nonzero"/></clipPath><clipPath id="036b063543"><rect x="0" width="108" y="0" height="28"/></clipPath><clipPath id="aab488c573"><rect x="0" width="144" y="0" height="53"/></clipPath><clipPath id="a5b14da9aa"><rect x="0" width="144" y="0" height="53"/></clipPath></defs><g clip-path="url(#03c6482b93)"><path fill="#ffffff" d="M 0.746094 0.0625 L 169.503906 0.0625 L 169.503906 84.441406 L 0.746094 84.441406 Z M 0.746094 0.0625 " fill-opacity="1" fill-rule="nonzero"/></g><g transform="matrix(1, 0, 0, 1, 12, 15)"><g clip-path="url(#a5b14da9aa)"><g clip-path="url(#c82f0f40c2)"><g><g clip-path="url(#aab488c573)"><g clip-path="url(#5a4a705825)"><path fill="#e10600" d="M 6.964844 32.144531 C 5.632812 32.144531 4.308594 32.152344 2.980469 32.140625 C 2.332031 32.132812 1.585938 32.292969 1.210938 31.554688 C 0.84375 30.828125 1.363281 30.308594 1.757812 29.773438 C 5.902344 24.175781 10.046875 18.570312 14.195312 12.972656 C 16.863281 9.375 19.539062 5.777344 22.214844 2.1875 C 22.628906 1.632812 22.976562 0.816406 23.886719 1.292969 C 24.75 1.75 24.398438 2.535156 24.21875 3.214844 C 22.78125 8.714844 21.328125 14.21875 19.878906 19.71875 C 19.386719 21.589844 19.382812 21.589844 21.382812 21.59375 C 23.984375 21.597656 26.585938 21.585938 29.183594 21.589844 C 29.777344 21.59375 30.433594 21.457031 30.792969 22.148438 C 31.125 22.789062 30.65625 23.203125 30.34375 23.628906 C 23.476562 32.925781 16.597656 42.214844 9.722656 51.503906 C 9.289062 52.089844 8.828125 52.785156 7.984375 52.324219 C 7.234375 51.914062 7.523438 51.1875 7.691406 50.539062 C 9.167969 44.929688 10.609375 39.308594 12.132812 33.710938 C 12.464844 32.492188 12.339844 32.003906 10.949219 32.117188 C 9.628906 32.230469 8.292969 32.144531 6.964844 32.144531 Z M 6.964844 32.144531 " fill-opacity="1" fill-rule="nonzero"/></g><g clip-path="url(#24f4a50122)"><g transform="matrix(1, 0, 0, 1, 36, 13)"><g clip-path="url(#036b063543)"><g fill="#e10600" fill-opacity="1"><g transform="translate(0.14298, 21.712922)"><g><path d="M 27.609375 0 L 24.703125 0 L 24.703125 -12.3125 L 15.8125 0 L 14.328125 0 L 5.4375 -12.3125 L 5.4375 0 L 2.546875 0 L 2.546875 -18.21875 L 4.71875 -18.21875 L 15.078125 -3.90625 L 25.421875 -18.21875 L 27.609375 -18.21875 Z M 27.609375 0 "/></g></g></g><g fill="#e10600" fill-opacity="1"><g transform="translate(30.280557, 21.712922)"><g><path d="M 26.5625 0 L 23.0625 0 L 20.390625 -3.953125 L 6.5625 -3.953125 L 3.875 0 L 0.375 0 L 12.703125 -18.21875 L 14.234375 -18.21875 Z M 18.4375 -6.84375 L 13.46875 -14.1875 L 8.5 -6.84375 Z M 18.4375 -6.84375 "/></g></g></g><g fill="#e10600" fill-opacity="1"><g transform="translate(55.31261, 21.712922)"><g><path d="M 17.828125 0 C 19.421875 0 20.78125 -0.5625 21.90625 -1.6875 C 23.039062 -2.820312 23.609375 -4.191406 23.609375 -5.796875 L 20.71875 -5.796875 C 20.71875 -4.984375 20.429688 -4.296875 19.859375 -3.734375 C 19.296875 -3.171875 18.617188 -2.890625 17.828125 -2.890625 L 7.703125 -2.890625 C 6.890625 -2.890625 6.203125 -3.171875 5.640625 -3.734375 C 5.078125 -4.296875 4.796875 -4.984375 4.796875 -5.796875 L 4.796875 -12.4375 C 4.796875 -13.226562 5.078125 -13.90625 5.640625 -14.46875 C 6.203125 -15.039062 6.890625 -15.328125 7.703125 -15.328125 L 17.828125 -15.328125 C 18.617188 -15.328125 19.296875 -15.039062 19.859375 -14.46875 C 20.429688 -13.90625 20.71875 -13.226562 20.71875 -12.4375 L 23.609375 -12.4375 C 23.609375 -14.03125 23.039062 -15.390625 21.90625 -16.515625 C 20.78125 -17.648438 19.421875 -18.21875 17.828125 -18.21875 L 7.703125 -18.21875 C 6.097656 -18.21875 4.726562 -17.648438 3.59375 -16.515625 C 2.46875 -15.390625 1.90625 -14.03125 1.90625 -12.4375 L 1.90625 -5.796875 C 1.90625 -4.191406 2.46875 -2.820312 3.59375 -1.6875 C 4.726562 -0.5625 6.097656 0 7.703125 0 Z M 17.828125 0 "/></g></g></g><g fill="#e10600" fill-opacity="1"><g transform="translate(80.827313, 21.712922)"><g><path d="M 23.671875 0 L 20.765625 0 L 20.765625 -7.671875 L 5.4375 -7.671875 L 5.4375 0 L 2.546875 0 L 2.546875 -18.21875 L 5.4375 -18.21875 L 5.4375 -10.5625 L 20.765625 -10.5625 L 20.765625 -18.21875 L 23.671875 -18.21875 Z M 23.671875 0 "/></g></g></g></g></g></g><g fill="#333333" fill-opacity="1"><g transform="translate(50.135021, 40.981594)"><g><path d="M 3.265625 0 C 3.546875 0 3.785156 -0.0976562 3.984375 -0.296875 C 4.191406 -0.492188 4.296875 -0.734375 4.296875 -1.015625 L 3.890625 -1.015625 C 3.890625 -0.847656 3.828125 -0.703125 3.703125 -0.578125 C 3.585938 -0.460938 3.441406 -0.40625 3.265625 -0.40625 L 1.359375 -0.40625 C 1.191406 -0.40625 1.046875 -0.460938 0.921875 -0.578125 C 0.804688 -0.703125 0.75 -0.847656 0.75 -1.015625 L 0.75 -2.28125 C 0.75 -2.445312 0.804688 -2.585938 0.921875 -2.703125 C 1.046875 -2.828125 1.191406 -2.890625 1.359375 -2.890625 L 3.265625 -2.890625 C 3.441406 -2.890625 3.585938 -2.828125 3.703125 -2.703125 C 3.828125 -2.585938 3.890625 -2.445312 3.890625 -2.28125 L 4.296875 -2.28125 C 4.296875 -2.5625 4.191406 -2.800781 3.984375 -3 C 3.785156 -3.195312 3.546875 -3.296875 3.265625 -3.296875 L 1.359375 -3.296875 C 1.078125 -3.296875 0.835938 -3.195312 0.640625 -3 C 0.441406 -2.800781 0.34375 -2.5625 0.34375 -2.28125 L 0.34375 -1.015625 C 0.34375 -0.734375 0.441406 -0.492188 0.640625 -0.296875 C 0.835938 -0.0976562 1.078125 0 1.359375 0 Z M 3.265625 0 "/></g></g><g transform="translate(54.772642, 40.981594)"><g><path d="M 4.296875 0 L 3.890625 0 L 3.890625 -1.4375 L 0.875 -1.4375 L 0.875 0 L 0.453125 0 L 0.453125 -3.296875 L 0.875 -3.296875 L 0.875 -1.84375 L 3.890625 -1.84375 L 3.890625 -3.296875 L 4.296875 -3.296875 Z M 4.296875 0 "/></g></g><g transform="translate(59.531942, 40.981594)"><g><path d="M 4.734375 0 L 4.25 0 L 3.734375 -0.75 L 1.0625 -0.75 L 0.5625 0 L 0.0625 0 L 2.296875 -3.296875 L 2.515625 -3.296875 Z M 3.46875 -1.15625 L 2.40625 -2.71875 L 1.34375 -1.15625 Z M 3.46875 -1.15625 "/></g></g><g transform="translate(64.33716, 40.981594)"><g><path d="M 4.40625 0 L 4 0 L 4 -0.890625 C 4 -0.984375 3.960938 -1.0625 3.890625 -1.125 C 3.828125 -1.195312 3.75 -1.234375 3.65625 -1.234375 L 0.875 -1.234375 L 0.875 0 L 0.453125 0 L 0.453125 -3.296875 L 3.65625 -3.296875 C 3.863281 -3.296875 4.039062 -3.222656 4.1875 -3.078125 C 4.332031 -2.929688 4.40625 -2.753906 4.40625 -2.546875 L 4.40625 -1.984375 C 4.40625 -1.773438 4.328125 -1.59375 4.171875 -1.4375 C 4.328125 -1.289062 4.40625 -1.109375 4.40625 -0.890625 Z M 3.65625 -1.640625 C 3.75 -1.640625 3.828125 -1.671875 3.890625 -1.734375 C 3.960938 -1.804688 4 -1.890625 4 -1.984375 L 4 -2.546875 C 4 -2.640625 3.960938 -2.71875 3.890625 -2.78125 C 3.828125 -2.851562 3.75 -2.890625 3.65625 -2.890625 L 0.875 -2.890625 L 0.875 -1.640625 Z M 3.65625 -1.640625 "/></g></g><g transform="translate(69.089574, 40.981594)"><g><path d="M 3.265625 0 C 3.546875 0 3.789062 -0.0976562 4 -0.296875 C 4.195312 -0.503906 4.296875 -0.742188 4.296875 -1.015625 L 4.296875 -1.375 C 4.296875 -1.457031 4.265625 -1.53125 4.203125 -1.59375 C 4.140625 -1.65625 4.0625 -1.6875 3.96875 -1.6875 L 2.3125 -1.6875 L 2.3125 -1.28125 L 3.890625 -1.28125 L 3.890625 -1.015625 C 3.890625 -0.859375 3.828125 -0.71875 3.703125 -0.59375 C 3.578125 -0.46875 3.429688 -0.40625 3.265625 -0.40625 L 1.359375 -0.40625 C 1.191406 -0.40625 1.046875 -0.460938 0.921875 -0.578125 C 0.804688 -0.703125 0.75 -0.847656 0.75 -1.015625 L 0.75 -2.28125 C 0.75 -2.445312 0.804688 -2.585938 0.921875 -2.703125 C 1.046875 -2.828125 1.191406 -2.890625 1.359375 -2.890625 L 3.265625 -2.890625 C 3.441406 -2.890625 3.585938 -2.828125 3.703125 -2.703125 C 3.828125 -2.585938 3.890625 -2.445312 3.890625 -2.28125 L 4.296875 -2.28125 C 4.296875 -2.5625 4.191406 -2.800781 3.984375 -3 C 3.785156 -3.195312 3.546875 -3.296875 3.265625 -3.296875 L 1.359375 -3.296875 C 1.078125 -3.296875 0.835938 -3.195312 0.640625 -3 C 0.441406 -2.800781 0.34375 -2.5625 0.34375 -2.28125 L 0.34375 -1.015625 C 0.34375 -0.734375 0.441406 -0.492188 0.640625 -0.296875 C 0.835938 -0.0976562 1.078125 0 1.359375 0 Z M 3.265625 0 "/></g></g><g transform="translate(73.727194, 40.981594)"><g><path d="M 0.875 0 L 0.875 -3.296875 L 0.453125 -3.296875 L 0.453125 0 Z M 0.875 0 "/></g></g><g transform="translate(75.054197, 40.981594)"><g><path d="M 4.40625 0 L 4.125 0 L 0.875 -2.65625 L 0.875 0 L 0.453125 0 L 0.453125 -3.296875 L 0.734375 -3.296875 L 4 -0.640625 L 4 -3.296875 L 4.40625 -3.296875 Z M 4.40625 0 "/></g></g><g transform="translate(79.921403, 40.981594)"><g><path d="M 3.265625 0 C 3.546875 0 3.789062 -0.0976562 4 -0.296875 C 4.195312 -0.503906 4.296875 -0.742188 4.296875 -1.015625 L 4.296875 -1.375 C 4.296875 -1.457031 4.265625 -1.53125 4.203125 -1.59375 C 4.140625 -1.65625 4.0625 -1.6875 3.96875 -1.6875 L 2.3125 -1.6875 L 2.3125 -1.28125 L 3.890625 -1.28125 L 3.890625 -1.015625 C 3.890625 -0.859375 3.828125 -0.71875 3.703125 -0.59375 C 3.578125 -0.46875 3.429688 -0.40625 3.265625 -0.40625 L 1.359375 -0.40625 C 1.191406 -0.40625 1.046875 -0.460938 0.921875 -0.578125 C 0.804688 -0.703125 0.75 -0.847656 0.75 -1.015625 L 0.75 -2.28125 C 0.75 -2.445312 0.804688 -2.585938 0.921875 -2.703125 C 1.046875 -2.828125 1.191406 -2.890625 1.359375 -2.890625 L 3.265625 -2.890625 C 3.441406 -2.890625 3.585938 -2.828125 3.703125 -2.703125 C 3.828125 -2.585938 3.890625 -2.445312 3.890625 -2.28125 L 4.296875 -2.28125 C 4.296875 -2.5625 4.191406 -2.800781 3.984375 -3 C 3.785156 -3.195312 3.546875 -3.296875 3.265625 -3.296875 L 1.359375 -3.296875 C 1.078125 -3.296875 0.835938 -3.195312 0.640625 -3 C 0.441406 -2.800781 0.34375 -2.5625 0.34375 -2.28125 L 0.34375 -1.015625 C 0.34375 -0.734375 0.441406 -0.492188 0.640625 -0.296875 C 0.835938 -0.0976562 1.078125 0 1.359375 0 Z M 3.265625 0 "/></g></g></g><g fill="#333333" fill-opacity="1"><g transform="translate(84.560554, 40.981594)"><g/></g><g transform="translate(85.726847, 40.981594)"><g/></g><g transform="translate(86.893139, 40.981594)"><g/></g><g transform="translate(88.059432, 40.981594)"><g/></g><g transform="translate(89.225725, 40.981594)"><g/></g></g><g fill="#333333" fill-opacity="1"><g transform="translate(90.392019, 40.981594)"><g><path d="M 4.40625 0 L 4 0 L 4 -0.890625 C 4 -0.984375 3.960938 -1.0625 3.890625 -1.125 C 3.828125 -1.195312 3.75 -1.234375 3.65625 -1.234375 L 0.875 -1.234375 L 0.875 0 L 0.453125 0 L 0.453125 -3.296875 L 3.65625 -3.296875 C 3.863281 -3.296875 4.039062 -3.222656 4.1875 -3.078125 C 4.332031 -2.929688 4.40625 -2.753906 4.40625 -2.546875 L 4.40625 -1.984375 C 4.40625 -1.773438 4.328125 -1.59375 4.171875 -1.4375 C 4.328125 -1.289062 4.40625 -1.109375 4.40625 -0.890625 Z M 3.65625 -1.640625 C 3.75 -1.640625 3.828125 -1.671875 3.890625 -1.734375 C 3.960938 -1.804688 4 -1.890625 4 -1.984375 L 4 -2.546875 C 4 -2.640625 3.960938 -2.71875 3.890625 -2.78125 C 3.828125 -2.851562 3.75 -2.890625 3.65625 -2.890625 L 0.875 -2.890625 L 0.875 -1.640625 Z M 3.65625 -1.640625 "/></g></g><g transform="translate(95.144432, 40.981594)"><g><path d="M 4.203125 0 L 0.453125 0 L 0.453125 -3.296875 L 4.203125 -3.296875 L 4.203125 -2.890625 L 0.875 -2.890625 L 0.875 -1.84375 L 3.8125 -1.84375 L 3.8125 -1.4375 L 0.875 -1.4375 L 0.875 -0.40625 L 4.203125 -0.40625 Z M 4.203125 0 "/></g></g><g transform="translate(99.692514, 40.981594)"><g><path d="M 3.390625 0 C 3.671875 0 3.910156 -0.0976562 4.109375 -0.296875 C 4.304688 -0.492188 4.40625 -0.734375 4.40625 -1.015625 L 4.40625 -2.28125 C 4.40625 -2.5625 4.304688 -2.800781 4.109375 -3 C 3.910156 -3.195312 3.671875 -3.296875 3.390625 -3.296875 L 0.453125 -3.296875 L 0.453125 0 Z M 3.390625 -0.40625 L 0.875 -0.40625 L 0.875 -2.890625 L 3.390625 -2.890625 C 3.554688 -2.890625 3.695312 -2.828125 3.8125 -2.703125 C 3.9375 -2.585938 4 -2.445312 4 -2.28125 L 4 -1.015625 C 4 -0.847656 3.9375 -0.703125 3.8125 -0.578125 C 3.695312 -0.460938 3.554688 -0.40625 3.390625 -0.40625 Z M 3.390625 -0.40625 "/></g></g><g transform="translate(104.444928, 40.981594)"><g><path d="M 4.203125 0 L 0.453125 0 L 0.453125 -3.296875 L 4.203125 -3.296875 L 4.203125 -2.890625 L 0.875 -2.890625 L 0.875 -1.84375 L 3.8125 -1.84375 L 3.8125 -1.4375 L 0.875 -1.4375 L 0.875 -0.40625 L 4.203125 -0.40625 Z M 4.203125 0 "/></g></g><g transform="translate(108.99301, 40.981594)"><g><path d="M 0.875 0 L 0.453125 0 L 0.453125 -3.296875 L 4.203125 -3.296875 L 4.203125 -2.890625 L 0.875 -2.890625 L 0.875 -1.84375 L 3.8125 -1.84375 L 3.8125 -1.4375 L 0.875 -1.4375 Z M 0.875 0 "/></g></g><g transform="translate(113.541093, 40.981594)"><g><path d="M 0.875 0 L 0.875 -3.296875 L 0.453125 -3.296875 L 0.453125 0 Z M 0.875 0 "/></g></g><g transform="translate(114.868095, 40.981594)"><g><path d="M 4.40625 0 L 4.125 0 L 0.875 -2.65625 L 0.875 0 L 0.453125 0 L 0.453125 -3.296875 L 0.734375 -3.296875 L 4 -0.640625 L 4 -3.296875 L 4.40625 -3.296875 Z M 4.40625 0 "/></g></g><g transform="translate(119.735301, 40.981594)"><g><path d="M 4.203125 0 L 0.453125 0 L 0.453125 -3.296875 L 4.203125 -3.296875 L 4.203125 -2.890625 L 0.875 -2.890625 L 0.875 -1.84375 L 3.8125 -1.84375 L 3.8125 -1.4375 L 0.875 -1.4375 L 0.875 -0.40625 L 4.203125 -0.40625 Z M 4.203125 0 "/></g></g><g transform="translate(124.283384, 40.981594)"><g><path d="M 3.390625 0 C 3.671875 0 3.910156 -0.0976562 4.109375 -0.296875 C 4.304688 -0.492188 4.40625 -0.734375 4.40625 -1.015625 L 4.40625 -2.28125 C 4.40625 -2.5625 4.304688 -2.800781 4.109375 -3 C 3.910156 -3.195312 3.671875 -3.296875 3.390625 -3.296875 L 0.453125 -3.296875 L 0.453125 0 Z M 3.390625 -0.40625 L 0.875 -0.40625 L 0.875 -2.890625 L 3.390625 -2.890625 C 3.554688 -2.890625 3.695312 -2.828125 3.8125 -2.703125 C 3.9375 -2.585938 4 -2.445312 4 -2.28125 L 4 -1.015625 C 4 -0.847656 3.9375 -0.703125 3.8125 -0.578125 C 3.695312 -0.460938 3.554688 -0.40625 3.390625 -0.40625 Z M 3.390625 -0.40625 "/></g></g></g></g></g></g></g></g></svg>